<svg width="328" height="101" viewBox="0 0 328 101" fill="none" xmlns="http://www.w3.org/2000/svg">
<g filter="url(#filter0_d_305_1236)">
<path fill-rule="evenodd" clip-rule="evenodd" d="M83.6276 37.3843L9.81295 38.2427L83.5618 38.8995L83.6276 37.3843ZM8.96134 45.0466L82.776 44.1882L82.7102 45.7032L8.96134 45.0466ZM3 76.5138L76.8147 75.6554L76.7488 77.1704L3 76.5138ZM78.5181 65.4496L4.70331 66.3081L78.4522 66.9649L78.5181 65.4496ZM7.25813 55.2521L81.0728 54.3937L81.007 55.9087L7.25813 55.2521Z" fill="white"/>
</g>
<g filter="url(#filter1_d_305_1236)">
<mask id="mask0_305_1236" style="mask-type:alpha" maskUnits="userSpaceOnUse" x="35" y="9" width="86" height="86">
<path d="M77.942 94.0468C101.459 94.0468 120.523 75.0084 120.523 51.5234C120.523 28.0384 101.459 9 77.942 9C54.4254 9 35.3613 28.0384 35.3613 51.5234C35.3613 75.0084 54.4254 94.0468 77.942 94.0468Z" fill="#FF6600"/>
</mask>
<g mask="url(#mask0_305_1236)">
<path d="M77.9401 94.0468C101.457 94.0468 120.521 75.0084 120.521 51.5234C120.521 28.0384 101.457 9 77.9401 9C54.4234 9 35.3594 28.0384 35.3594 51.5234C35.3594 75.0084 54.4234 94.0468 77.9401 94.0468Z" fill="#FF6600"/>
<path d="M120.521 30.2617H35.3594V32.8132H120.521V30.2617Z" fill="white"/>
<path d="M120.521 24.3086H35.3594V26.86H120.521V24.3086Z" fill="white"/>
<path d="M10.6641 27.7104H232.084V30.2618H10.6641V27.7104Z" fill="#303030"/>
<mask id="mask1_305_1236" style="mask-type:luminance" maskUnits="userSpaceOnUse" x="10" y="27" width="223" height="4">
<path d="M232.152 27.5059H10.6641V30.3652H232.152V27.5059Z" fill="white"/>
<path d="M10.6641 27.71H232.084V30.2613H10.6641V27.71Z" fill="black"/>
</mask>
<g mask="url(#mask1_305_1236)">
<path d="M10.6641 27.9139H232.084V27.5059H10.6641V27.9139Z" fill="#7C7C7C"/>
</g>
</g>
</g>
<path fill-rule="evenodd" clip-rule="evenodd" d="M106.692 82.1405H100.356L94.0197 49.9587L87.6837 82.1405H81.3477L90.7495 34.5142H91.3283H97.6643L104 66.696L110.336 34.5142H116.672L107.271 82.1405H106.692Z" fill="white"/>
<path d="M72.832 82.1405L82.1998 34.5142H88.5356L79.1679 82.1405H72.832Z" fill="white"/>
<g filter="url(#filter2_d_305_1236)">
<path d="M112.857 27.7104H326.612L325.127 30.2618H114.561L112.857 27.7104Z" fill="#303030"/>
</g>
<g filter="url(#filter3_d_305_1236)">
<path d="M120.386 34.5142H141.642L148.319 42.6107L142.596 75.2006L134.42 82.1405H112.006L116.196 58.3272L120.386 34.5142ZM131.559 76.4252L136.532 72.207L141.438 44.4476L137.963 40.2294L119.404 40.0932L113.083 76.0171L131.559 76.4252Z" fill="#FF6600"/>
<path d="M143.881 74.044L150.83 34.5142H157.371L150.694 72.207L154.237 76.4252H168.952L173.926 72.207L180.671 34.5142H187.211L179.989 74.9966L171.609 82.1405H150.558L143.881 74.044Z" fill="#FF6600"/>
<path d="M181.1 75.1326L181.917 70.3699H188.389L187.844 73.4317L190.229 76.4252H205.83L209.442 73.3637L211.145 63.5662L208.624 60.6407H190.706L184.983 53.7008L187.299 40.7057L194.589 34.5142H215.096L214.994 34.7184L214.585 34.5142V36.9975V40.0932L211.757 40.2294H196.838L193.295 43.223L191.796 51.9318L194.249 54.9254H212.166L217.89 61.7973L215.368 76.0171L208.147 82.1405H186.891L181.1 75.1326Z" fill="#FF6600"/>
<path d="M227.496 40.1614H213.121L214.142 34.5142H249.432L248.412 40.1614H234.037L226.611 82.1405H220.07L227.496 40.1614Z" fill="#FF6600"/>
<path d="M281.957 56.1502L275.961 61.321L280.321 67.1721L277.664 82.1405H271.124L273.576 68.3969L269.353 62.7497H252.66L249.253 82.1405H242.713L251.094 34.5142H278.754L284.544 41.5221L281.957 56.1502ZM277.799 43.087L275.28 40.0932H256.681L253.613 57.1706H272.281L275.893 54.1771L277.799 43.087Z" fill="#FF6600"/>
<path d="M294.536 62.4096L282.75 34.5142H289.425L298.283 56.4223H298.42L315.11 34.5142H322.673L301.076 62.4096L297.602 82.1405H291.061L294.536 62.4096Z" fill="#FF6600"/>
</g>
<g filter="url(#filter4_d_305_1236)">
<path d="M145.219 99.7497C145.853 97.3384 146.488 94.9273 147.122 92.5163C147.757 90.105 148.391 87.7058 149.026 85.3186C149.207 84.507 149.615 83.9698 150.25 83.7072C150.929 83.4445 151.927 83.3013 153.241 83.2774C154.963 83.2535 156.912 83.2417 159.088 83.2417C161.308 83.2417 163.461 83.2417 165.546 83.2417C167.676 83.2417 169.557 83.2656 171.189 83.3132C173.092 83.361 174.633 83.564 175.812 83.922C176.99 84.2562 177.806 84.7694 178.259 85.4618C178.757 86.1303 178.871 86.9897 178.599 88.0401C178.1 89.8544 176.877 91.1793 174.928 92.0149C172.979 92.8504 170.532 93.2683 167.586 93.2683C165.274 93.2683 162.94 93.2683 160.583 93.2683C158.226 93.2683 155.87 93.2683 153.513 93.2683C153.604 92.8625 153.671 92.552 153.717 92.3372C153.807 92.1223 153.943 91.9671 154.125 91.8717C154.306 91.7761 154.623 91.7283 155.077 91.7283C155.756 91.7283 156.731 91.7283 158 91.7283C159.314 91.7283 160.697 91.7283 162.147 91.7283C163.597 91.7283 164.912 91.7283 166.09 91.7283C167.223 91.7283 168.265 91.6209 169.217 91.406C170.214 91.1914 171.075 90.8092 171.801 90.2602C172.526 89.7112 173.002 88.9592 173.228 88.0042C173.5 87.0733 173.342 86.3451 172.752 85.8198C172.163 85.2708 171.053 84.9724 169.421 84.9246C167.971 84.853 166.407 84.8172 164.73 84.8172C163.053 84.7933 161.422 84.7933 159.835 84.8172C158.294 84.8172 157.025 84.8293 156.028 84.853C155.802 84.853 155.462 84.9128 155.009 85.0321C154.555 85.1277 154.261 85.3544 154.125 85.7124C153.49 88.052 152.856 90.3916 152.221 92.7311C151.587 95.0468 150.975 97.3862 150.386 99.7497H145.219Z" fill="#7C7C7C"/>
<path d="M198.8 100C196.126 100 193.747 99.8927 191.662 99.6778C189.623 99.463 187.946 99.0692 186.631 98.4961C185.317 97.8993 184.433 97.0398 183.98 95.918C183.527 94.7959 183.549 93.3157 184.048 91.4776C184.546 89.6155 185.34 88.1235 186.427 87.0014C187.561 85.8556 188.965 84.9962 190.642 84.4233C192.365 83.8502 194.336 83.4682 196.557 83.2773C198.778 83.0863 201.203 82.9907 203.831 82.9907C206.505 82.9907 208.862 83.0982 210.901 83.313C212.987 83.504 214.687 83.898 216 84.4948C217.315 85.0677 218.198 85.9153 218.652 87.0371C219.104 88.1592 219.082 89.6394 218.585 91.4776C218.086 93.3635 217.27 94.8675 216.137 95.9894C215.004 97.1115 213.599 97.971 211.922 98.5678C210.245 99.1407 208.296 99.5228 206.075 99.7138C203.899 99.9047 201.474 100 198.8 100ZM199.412 98.4603C201.361 98.4603 203.084 98.3768 204.579 98.2097C206.12 98.0188 207.457 97.6965 208.59 97.2429C209.723 96.7653 210.674 96.0611 211.445 95.1302C212.216 94.1991 212.783 92.9934 213.145 91.5133C213.554 90.0095 213.621 88.8038 213.349 87.8966C213.077 86.9657 212.488 86.2614 211.582 85.7839C210.721 85.2825 209.566 84.9484 208.114 84.7813C206.709 84.6142 205.032 84.5307 203.084 84.5307C201.18 84.5307 199.458 84.6142 197.917 84.7813C196.421 84.9484 195.107 85.2825 193.974 85.7839C192.84 86.2614 191.889 86.9657 191.118 87.8966C190.393 88.8038 189.827 90.0095 189.419 91.5133C189.011 92.9934 188.943 94.1991 189.215 95.1302C189.487 96.0611 190.053 96.7653 190.914 97.2429C191.775 97.6965 192.931 98.0188 194.381 98.2097C195.832 98.3768 197.509 98.4603 199.412 98.4603Z" fill="#7C7C7C"/>
<path d="M246.102 92.9816C246.102 92.9816 245.444 92.9816 244.131 92.9816C242.861 92.9816 241.161 92.9816 239.032 92.9816C236.901 92.9816 234.545 92.9934 231.962 93.0173L230.193 99.7495H225.027L228.903 85.1393C229.083 84.4469 229.492 83.9696 230.126 83.707C230.76 83.4443 231.713 83.3011 232.981 83.2773C233.662 83.2534 234.568 83.2415 235.701 83.2415C236.834 83.2415 238.079 83.2415 239.439 83.2415C240.799 83.2176 242.182 83.2056 243.587 83.2056C245.037 83.2056 246.419 83.2056 247.734 83.2056C249.047 83.2056 250.225 83.2176 251.268 83.2415C252.356 83.2654 253.172 83.2891 253.716 83.313C256.072 83.4325 257.704 83.8501 258.61 84.5664C259.519 85.2588 259.791 86.2972 259.426 87.6817C259.065 88.7799 258.521 89.6512 257.794 90.2958C257.071 90.9404 256.117 91.4179 254.939 91.7281C254.759 91.7998 254.51 91.8595 254.193 91.9073C253.874 91.9312 253.557 91.943 253.24 91.943V92.0147C253.422 92.0147 253.602 92.0147 253.784 92.0147C254.011 92.0147 254.215 92.0147 254.395 92.0147C255.528 92.134 256.299 92.3488 256.709 92.6593C257.16 92.9458 257.41 93.28 257.455 93.6619C257.5 94.0438 257.477 94.4257 257.387 94.8079L256.299 98.89C256.209 99.1288 256.187 99.3316 256.232 99.4989C256.277 99.6421 256.322 99.7256 256.367 99.7495H252.765C252.129 99.7495 251.63 99.6899 251.268 99.5704C250.951 99.4511 250.839 99.1645 250.929 98.7109L252.017 94.9153C252.244 94.1751 252.062 93.6739 251.473 93.4113C250.929 93.1247 249.886 92.9816 248.346 92.9816H246.102ZM232.369 91.4775C233.048 91.4775 234.069 91.4896 235.429 91.5133C236.789 91.5133 238.261 91.5133 239.848 91.5133C241.433 91.5133 242.906 91.5133 244.266 91.5133C245.671 91.5133 246.669 91.5133 247.258 91.5133C248.798 91.5133 250.203 91.2747 251.473 90.7972C252.741 90.2958 253.557 89.3767 253.921 88.0399C254.193 87.1327 254.056 86.4164 253.512 85.8913C253.013 85.3423 252.062 85.02 250.657 84.9245C249.706 84.8528 248.526 84.817 247.121 84.817C245.716 84.7931 244.266 84.7931 242.771 84.817C241.276 84.817 239.893 84.8291 238.623 84.8528C237.355 84.8528 236.402 84.8528 235.768 84.8528C235.586 84.8528 235.269 84.9006 234.817 84.9961C234.363 85.0676 234.069 85.3064 233.934 85.7122L232.369 91.4775Z" fill="#7C7C7C"/>
<path d="M266.723 83.2773H297.656L297.249 84.8888H284.467L280.796 98.5679C280.706 98.8544 280.591 99.0811 280.456 99.2482C280.319 99.4154 280.117 99.5466 279.845 99.6422C279.618 99.7138 279.209 99.7496 278.62 99.7496H275.288L279.231 84.8888H266.316L266.723 83.2773Z" fill="#7C7C7C"/>
</g>
<g filter="url(#filter5_d_305_1236)">
<path d="M112.758 27.5059H326.73L326.613 27.7099H113.061L112.758 27.5059Z" fill="#7C7C7C"/>
</g>
<path d="M8.69141 45.0464L82.506 44.188L82.4404 45.7033L8.69141 45.0464Z" fill="white"/>
<path d="M2.73047 76.5137L76.5452 75.6553L76.4793 77.1703L2.73047 76.5137Z" fill="white"/>
<path d="M4.43359 66.3081L78.2483 65.4497L78.1824 66.965L4.43359 66.3081Z" fill="white"/>
<path d="M6.98828 55.252L80.8029 54.3936L80.7373 55.9086L6.98828 55.252Z" fill="white"/>
<path d="M9.54297 38.2427L83.3576 37.3843L83.2919 38.8993L9.54297 38.2427Z" fill="white"/>
<path d="M64.3145 34.544L84.0571 34.5356L83.9915 35.1997L64.3145 34.544Z" fill="white"/>
<path d="M57.502 71.0292L77.2446 71.021L77.1788 71.685L57.502 71.0292Z" fill="white"/>
<path d="M59.2051 61.6742L78.9478 61.666L78.8819 62.3298L59.2051 61.6742Z" fill="white"/>
<path d="M60.9082 49.7676L80.6509 49.7593L80.585 50.4233L60.9082 49.7676Z" fill="white"/>
<defs>
<filter id="filter0_d_305_1236" x="0" y="28.3843" width="84.627" height="48.7861" filterUnits="userSpaceOnUse" color-interpolation-filters="sRGB">
<feFlood flood-opacity="0" result="BackgroundImageFix"/>
<feColorMatrix in="SourceAlpha" type="matrix" values="0 0 0 0 0 0 0 0 0 0 0 0 0 0 0 0 0 0 127 0" result="hardAlpha"/>
<feOffset dx="-1" dy="-7"/>
<feGaussianBlur stdDeviation="1"/>
<feComposite in2="hardAlpha" operator="out"/>
<feColorMatrix type="matrix" values="0 0 0 0 0 0 0 0 0 0 0 0 0 0 0 0 0 0 0.25 0"/>
<feBlend mode="normal" in2="BackgroundImageFix" result="effect1_dropShadow_305_1236"/>
<feBlend mode="normal" in="SourceGraphic" in2="effect1_dropShadow_305_1236" result="shape"/>
</filter>
<filter id="filter1_d_305_1236" x="32.3613" y="0" width="89.1621" height="94.0469" filterUnits="userSpaceOnUse" color-interpolation-filters="sRGB">
<feFlood flood-opacity="0" result="BackgroundImageFix"/>
<feColorMatrix in="SourceAlpha" type="matrix" values="0 0 0 0 0 0 0 0 0 0 0 0 0 0 0 0 0 0 127 0" result="hardAlpha"/>
<feOffset dx="-1" dy="-7"/>
<feGaussianBlur stdDeviation="1"/>
<feComposite in2="hardAlpha" operator="out"/>
<feColorMatrix type="matrix" values="0 0 0 0 0 0 0 0 0 0 0 0 0 0 0 0 0 0 0.25 0"/>
<feBlend mode="normal" in2="BackgroundImageFix" result="effect1_dropShadow_305_1236"/>
<feBlend mode="normal" in="SourceGraphic" in2="effect1_dropShadow_305_1236" result="shape"/>
</filter>
<filter id="filter2_d_305_1236" x="109.857" y="18.7104" width="217.754" height="11.5513" filterUnits="userSpaceOnUse" color-interpolation-filters="sRGB">
<feFlood flood-opacity="0" result="BackgroundImageFix"/>
<feColorMatrix in="SourceAlpha" type="matrix" values="0 0 0 0 0 0 0 0 0 0 0 0 0 0 0 0 0 0 127 0" result="hardAlpha"/>
<feOffset dx="-1" dy="-7"/>
<feGaussianBlur stdDeviation="1"/>
<feComposite in2="hardAlpha" operator="out"/>
<feColorMatrix type="matrix" values="0 0 0 0 0 0 0 0 0 0 0 0 0 0 0 0 0 0 0.25 0"/>
<feBlend mode="normal" in2="BackgroundImageFix" result="effect1_dropShadow_305_1236"/>
<feBlend mode="normal" in="SourceGraphic" in2="effect1_dropShadow_305_1236" result="shape"/>
</filter>
<filter id="filter3_d_305_1236" x="109.006" y="25.5142" width="214.668" height="56.6265" filterUnits="userSpaceOnUse" color-interpolation-filters="sRGB">
<feFlood flood-opacity="0" result="BackgroundImageFix"/>
<feColorMatrix in="SourceAlpha" type="matrix" values="0 0 0 0 0 0 0 0 0 0 0 0 0 0 0 0 0 0 127 0" result="hardAlpha"/>
<feOffset dx="-1" dy="-7"/>
<feGaussianBlur stdDeviation="1"/>
<feComposite in2="hardAlpha" operator="out"/>
<feColorMatrix type="matrix" values="0 0 0 0 0 0 0 0 0 0 0 0 0 0 0 0 0 0 0.25 0"/>
<feBlend mode="normal" in2="BackgroundImageFix" result="effect1_dropShadow_305_1236"/>
<feBlend mode="normal" in="SourceGraphic" in2="effect1_dropShadow_305_1236" result="shape"/>
</filter>
<filter id="filter4_d_305_1236" x="142.219" y="79.9907" width="156.438" height="21.0093" filterUnits="userSpaceOnUse" color-interpolation-filters="sRGB">
<feFlood flood-opacity="0" result="BackgroundImageFix"/>
<feColorMatrix in="SourceAlpha" type="matrix" values="0 0 0 0 0 0 0 0 0 0 0 0 0 0 0 0 0 0 127 0" result="hardAlpha"/>
<feOffset dx="-1" dy="-1"/>
<feGaussianBlur stdDeviation="1"/>
<feComposite in2="hardAlpha" operator="out"/>
<feColorMatrix type="matrix" values="0 0 0 0 0 0 0 0 0 0 0 0 0 0 0 0 0 0 0.25 0"/>
<feBlend mode="normal" in2="BackgroundImageFix" result="effect1_dropShadow_305_1236"/>
<feBlend mode="normal" in="SourceGraphic" in2="effect1_dropShadow_305_1236" result="shape"/>
</filter>
<filter id="filter5_d_305_1236" x="109.758" y="18.5059" width="217.973" height="9.2041" filterUnits="userSpaceOnUse" color-interpolation-filters="sRGB">
<feFlood flood-opacity="0" result="BackgroundImageFix"/>
<feColorMatrix in="SourceAlpha" type="matrix" values="0 0 0 0 0 0 0 0 0 0 0 0 0 0 0 0 0 0 127 0" result="hardAlpha"/>
<feOffset dx="-1" dy="-7"/>
<feGaussianBlur stdDeviation="1"/>
<feComposite in2="hardAlpha" operator="out"/>
<feColorMatrix type="matrix" values="0 0 0 0 0 0 0 0 0 0 0 0 0 0 0 0 0 0 0.25 0"/>
<feBlend mode="normal" in2="BackgroundImageFix" result="effect1_dropShadow_305_1236"/>
<feBlend mode="normal" in="SourceGraphic" in2="effect1_dropShadow_305_1236" result="shape"/>
</filter>
</defs>
</svg>
